<?xml version="1.0" encoding="UTF-8"?> <svg xmlns="http://www.w3.org/2000/svg" xmlns:xlink="http://www.w3.org/1999/xlink" width="154.697" height="49.236" viewBox="0 0 154.697 49.236"><defs><linearGradient id="linear-gradient" x1="0.799" y1="0.048" x2="0.586" y2="1" gradientUnits="objectBoundingBox"><stop offset="0"></stop><stop offset="1"></stop></linearGradient></defs><g id="Group_3911" data-name="Group 3911" transform="translate(6222.99 5048.543)"><g id="Group_3910" data-name="Group 3910" transform="translate(-6222.49 -5048.043)"><path id="Union_1" data-name="Union 1" d="M0,27.353C0,15.82,11.285,6.47,25.205,6.47h.066v6.942h8.38v6.694a13.528,13.528,0,0,0-8.446-2.83c-6.717,0-12.162,4.511-12.162,10.076s5.445,10.076,12.162,10.076,12.162-4.511,12.162-10.076a9.23,9.23,0,0,0-3.415-7h8.079V27.3h8.379c0,.018,0,.036,0,.055,0,11.533-11.285,20.883-25.205,20.883S0,38.886,0,27.353ZM48,22.09v-4h4.825v4ZM33.779,13.413V6.47h8.38v6.943ZM48,11.94v-4h4.825v4ZM43.664,5.033V2h3.662V5.033ZM31.033,4V0h4.825V4Z" transform="translate(0)" stroke="rgba(0,0,0,0)" stroke-miterlimit="10" stroke-width="1" fill="url(#linear-gradient)"></path><g id="Group_416" data-name="Group 416" transform="translate(49.921 21.276)"><path id="Path_2642" data-name="Path 2642" d="M362.447,154.548H349.873c-4.465,0-4.935,5.5-4.935,5.5s-.764,4.089-1.058,7.156,4.171,2.969,4.171,2.969,9.166.049,12.632,0a4.758,4.758,0,0,0,4.407-3.359s1.175-5.987,1.41-8.859-4.054-3.407-4.054-3.407m-2.242,5.865c-.1,1.274-.625,3.929-.625,3.929a2.11,2.11,0,0,1-1.954,1.49c-1.537.022-5.6,0-5.6,0s-1.98.043-1.85-1.317.469-3.173.469-3.173.208-2.439,2.189-2.439h5.576s1.9.238,1.8,1.511" transform="translate(-343.867 -154.418)" stroke="rgba(0,0,0,0)" stroke-width="1" fill="url(#linear-gradient)"></path><path id="Path_2643" data-name="Path 2643" d="M481.458,153.77l-2.7,15.647h5.993l2.174-10.974,7.99.049s1.645.292,1.234,1.266a1.42,1.42,0,0,1-1.528.779h-7.135l1.788,4.527h3.76s2.174-.195,2,1.266-.529,3.088-.529,3.088h5.993l.646-4.013s.823-2.093-1.116-2.775a3.48,3.48,0,0,0,1.939-2.58,25.76,25.76,0,0,0,.352-3.992s.587-2-2.35-2.288-18.507,0-18.507,0" transform="translate(-455.475 -153.64)" stroke="rgba(0,0,0,0)" stroke-width="1" fill="url(#linear-gradient)"></path><path id="Path_2644" data-name="Path 2644" d="M621.877,153.64l-2.526,15.777h6.228l1.41-10.341s0-.876,1.41-.779,6.992-.1,6.992-.1,1.469.146,1.116.827-1.645.438-1.645.438l-6.906.195,1.207,3.7h5.7s1.116.049.94.876-1.41.828-1.41.828h-7.227l1.469,4.354h8.7a3.78,3.78,0,0,0,3.408-2.31c.94-2.336,1.763-4.186-.529-5.16,0,0,1.586.341,2.291-2.385s.7-5.306-2.468-5.452-18.155-.471-18.155-.471" transform="translate(-571.806 -153.64)" stroke="rgba(0,0,0,0)" stroke-width="1" fill="url(#linear-gradient)"></path><path id="Path_2645" data-name="Path 2645" d="M761.182,155.569l-2.938,15.5h6.169l2.879-15.5Z" transform="translate(-686.728 -155.293)" stroke="rgba(0,0,0,0)" stroke-width="1" fill="url(#linear-gradient)"></path><path id="Path_2646" data-name="Path 2646" d="M815.812,155.569l-1.058,4.868h7.4l-1.88,10.633h6.11l2.115-10.585,8.108.049.588-4.965Z" transform="translate(-733.485 -155.293)" stroke="rgba(0,0,0,0)" stroke-width="1" fill="url(#linear-gradient)"></path></g><g id="Group_417" data-name="Group 417" transform="translate(50.486 41.125)"><path id="Path_2647" data-name="Path 2647" d="M351.208,293.5h-1.594l-.786,3.759h-.892l.79-3.759h-1.584l.13-.612h4.066Z" transform="translate(-347.142 -292.822)" stroke="rgba(0,0,0,0)" stroke-width="1" fill="url(#linear-gradient)"></path><path id="Path_2648" data-name="Path 2648" d="M373.623,295.3h-2.1l-.282,1.345H373.7l-.127.606h-3.352l.913-4.371h3.33l-.13.612H371.9l-.254,1.207h2.105Z" transform="translate(-366.234 -292.822)" stroke="rgba(0,0,0,0)" stroke-width="1" fill="url(#linear-gradient)"></path><path id="Path_2649" data-name="Path 2649" d="M399.357,295.465a1.657,1.657,0,0,1-.743,1.091,2.543,2.543,0,0,1-1.482.395,2.034,2.034,0,0,1-.882-.2,1.4,1.4,0,0,1-.592-.551,1.776,1.776,0,0,1-.239-.818,3.689,3.689,0,0,1,.1-.932,2.651,2.651,0,0,1,.473-1.058,2.241,2.241,0,0,1,.859-.706,2.56,2.56,0,0,1,1.132-.228,1.881,1.881,0,0,1,1.245.41,1.462,1.462,0,0,1,.487,1.1h-.888a.956.956,0,0,0-.237-.677.941.941,0,0,0-.651-.218,1.353,1.353,0,0,0-.989.351,1.894,1.894,0,0,0-.536,1.065l-.073.4-.032.306a1.513,1.513,0,0,0,.052.58.744.744,0,0,0,.288.414.955.955,0,0,0,.526.151,1.18,1.18,0,0,0,1.3-.868Z" transform="translate(-387.083 -292.46)" stroke="rgba(0,0,0,0)" stroke-width="1" fill="url(#linear-gradient)"></path><path id="Path_2650" data-name="Path 2650" d="M425.517,297.254h-.891l.406-1.939h-2.283l-.406,1.939h-.9l.917-4.371h.9l-.384,1.819h2.283l.381-1.819h.9Z" transform="translate(-408.623 -292.822)" stroke="rgba(0,0,0,0)" stroke-width="1" fill="url(#linear-gradient)"></path><path id="Path_2651" data-name="Path 2651" d="M455.349,297.254h-.866l-1.649-3.131-.656,3.131h-.9l.917-4.371h.866l1.649,3.143.659-3.143h.892Z" transform="translate(-433.309 -292.822)" stroke="rgba(0,0,0,0)" stroke-width="1" fill="url(#linear-gradient)"></path><path id="Path_2652" data-name="Path 2652" d="M484.407,296.952a2.076,2.076,0,0,1-.9-.2,1.431,1.431,0,0,1-.607-.566,1.868,1.868,0,0,1-.246-.842,3.225,3.225,0,0,1,.081-.877,2.63,2.63,0,0,1,.38-.914,2.375,2.375,0,0,1,2.1-1.088,1.8,1.8,0,0,1,1.248.447,1.676,1.676,0,0,1,.509,1.177,3.229,3.229,0,0,1-.081.854,2.754,2.754,0,0,1-.355.886,2.373,2.373,0,0,1-.625.674,2.416,2.416,0,0,1-1.5.453m1.649-2.363.032-.318a1.593,1.593,0,0,0-.069-.6.785.785,0,0,0-.306-.423,1,1,0,0,0-.545-.155,1.4,1.4,0,0,0-.81.213,1.6,1.6,0,0,0-.572.685,3.048,3.048,0,0,0-.256,1.153,1.257,1.257,0,0,0,.2.865.874.874,0,0,0,.717.327,1.357,1.357,0,0,0,1.035-.391,2.051,2.051,0,0,0,.534-1.141Z" transform="translate(-459.259 -292.46)" stroke="rgba(0,0,0,0)" stroke-width="1" fill="url(#linear-gradient)"></path><path id="Path_2653" data-name="Path 2653" d="M511.135,296.648h2.326l-.13.606h-3.218l.917-4.371h.895Z" transform="translate(-481.986 -292.822)" stroke="rgba(0,0,0,0)" stroke-width="1" fill="url(#linear-gradient)"></path><path id="Path_2654" data-name="Path 2654" d="M534.86,296.952a2.077,2.077,0,0,1-.9-.2,1.431,1.431,0,0,1-.607-.566,1.868,1.868,0,0,1-.246-.842,3.224,3.224,0,0,1,.081-.877,2.633,2.633,0,0,1,.38-.914,2.376,2.376,0,0,1,2.1-1.088,1.8,1.8,0,0,1,1.248.447,1.676,1.676,0,0,1,.509,1.177,3.234,3.234,0,0,1-.081.854,2.754,2.754,0,0,1-.355.886,2.374,2.374,0,0,1-.625.674,2.416,2.416,0,0,1-1.5.453m1.649-2.363.032-.318a1.593,1.593,0,0,0-.069-.6.785.785,0,0,0-.306-.423,1,1,0,0,0-.545-.155,1.4,1.4,0,0,0-.81.213,1.6,1.6,0,0,0-.572.685,3.05,3.05,0,0,0-.255,1.153,1.257,1.257,0,0,0,.2.865.874.874,0,0,0,.717.327,1.357,1.357,0,0,0,1.035-.391,2.051,2.051,0,0,0,.534-1.141Z" transform="translate(-501.004 -292.46)" stroke="rgba(0,0,0,0)" stroke-width="1" fill="url(#linear-gradient)"></path><path id="Path_2655" data-name="Path 2655" d="M565.94,296.324a1.806,1.806,0,0,1-.819.473,3.936,3.936,0,0,1-1.181.155,2.136,2.136,0,0,1-.92-.194,1.507,1.507,0,0,1-.632-.555,1.738,1.738,0,0,1-.266-.83,3.489,3.489,0,0,1,.091-.919,2.7,2.7,0,0,1,.415-.992,2.231,2.231,0,0,1,.727-.68,2.53,2.53,0,0,1,1.326-.321,1.955,1.955,0,0,1,1.241.378,1.424,1.424,0,0,1,.505,1.027l-.866,0a.814.814,0,0,0-.9-.789,1.366,1.366,0,0,0-1.013.358,1.98,1.98,0,0,0-.542,1.077,4.082,4.082,0,0,0-.091.671,1.194,1.194,0,0,0,.237.845.947.947,0,0,0,.755.315,1.784,1.784,0,0,0,1.044-.26l.2-.853h-1.058l.123-.576h1.939Z" transform="translate(-525.014 -292.46)" stroke="rgba(0,0,0,0)" stroke-width="1" fill="url(#linear-gradient)"></path><path id="Path_2656" data-name="Path 2656" d="M590.35,297.254h-.891l.917-4.371h.891Z" transform="translate(-547.638 -292.822)" stroke="rgba(0,0,0,0)" stroke-width="1" fill="url(#linear-gradient)"></path><path id="Path_2657" data-name="Path 2657" d="M604.559,295.3h-2.1l-.282,1.345h2.457l-.127.606h-3.352l.913-4.371h3.33l-.13.612h-2.432l-.254,1.207h2.105Z" transform="translate(-557.313 -292.822)" stroke="rgba(0,0,0,0)" stroke-width="1" fill="url(#linear-gradient)"></path><path id="Path_2658" data-name="Path 2658" d="M627.887,295.743q.08-.432-.569-.642l-.293-.09a2.9,2.9,0,0,1-1.163-.562.9.9,0,0,1-.312-.753,1.032,1.032,0,0,1,.306-.656,1.815,1.815,0,0,1,.73-.437,2.831,2.831,0,0,1,.964-.144,2.258,2.258,0,0,1,.877.179,1.334,1.334,0,0,1,.587.471,1.125,1.125,0,0,1,.188.689l-.891,0a.616.616,0,0,0-.183-.532.941.941,0,0,0-.629-.2,1.353,1.353,0,0,0-.716.165.655.655,0,0,0-.342.462q-.073.381.616.6l.272.081a2.768,2.768,0,0,1,1.159.578.949.949,0,0,1,.29.785,1.073,1.073,0,0,1-.293.644,1.674,1.674,0,0,1-.712.425,3.07,3.07,0,0,1-1,.144,2.441,2.441,0,0,1-.94-.18,1.472,1.472,0,0,1-.647-.491,1.1,1.1,0,0,1-.206-.713l.895,0a.626.626,0,0,0,.221.573,1.145,1.145,0,0,0,.718.207,1.459,1.459,0,0,0,.727-.153.646.646,0,0,0,.35-.453" transform="translate(-577.025 -292.458)" stroke="rgba(0,0,0,0)" stroke-width="1" fill="url(#linear-gradient)"></path><path id="Path_2659" data-name="Path 2659" d="M663.875,295.743q.08-.432-.569-.642l-.293-.09a2.9,2.9,0,0,1-1.163-.562.9.9,0,0,1-.312-.753,1.032,1.032,0,0,1,.306-.656,1.813,1.813,0,0,1,.73-.437,2.83,2.83,0,0,1,.964-.144,2.259,2.259,0,0,1,.877.179,1.334,1.334,0,0,1,.587.471,1.126,1.126,0,0,1,.188.689l-.891,0a.615.615,0,0,0-.183-.532.941.941,0,0,0-.629-.2,1.353,1.353,0,0,0-.716.165.655.655,0,0,0-.342.462q-.072.381.616.6l.272.081a2.768,2.768,0,0,1,1.159.578.949.949,0,0,1,.29.785,1.072,1.072,0,0,1-.293.644,1.675,1.675,0,0,1-.712.425,3.071,3.071,0,0,1-1,.144,2.441,2.441,0,0,1-.94-.18,1.471,1.471,0,0,1-.647-.491,1.1,1.1,0,0,1-.206-.713l.895,0a.625.625,0,0,0,.221.573,1.145,1.145,0,0,0,.717.207,1.459,1.459,0,0,0,.727-.153.645.645,0,0,0,.35-.453" transform="translate(-606.802 -292.458)" stroke="rgba(0,0,0,0)" stroke-width="1" fill="url(#linear-gradient)"></path><path id="Path_2660" data-name="Path 2660" d="M690.563,294.949l1.609-2.066h1.036l-2.326,2.8-.33,1.57h-.9l.348-1.648-1.127-2.723h.946Z" transform="translate(-629.896 -292.822)" stroke="rgba(0,0,0,0)" stroke-width="1" fill="url(#linear-gradient)"></path><path id="Path_2661" data-name="Path 2661" d="M714.559,295.743q.08-.432-.569-.642l-.293-.09a2.9,2.9,0,0,1-1.163-.562.9.9,0,0,1-.312-.753,1.032,1.032,0,0,1,.306-.656,1.815,1.815,0,0,1,.73-.437,2.831,2.831,0,0,1,.964-.144,2.258,2.258,0,0,1,.877.179,1.334,1.334,0,0,1,.587.471,1.126,1.126,0,0,1,.188.689l-.891,0a.615.615,0,0,0-.183-.532.942.942,0,0,0-.629-.2,1.352,1.352,0,0,0-.716.165.655.655,0,0,0-.342.462q-.073.381.616.6l.272.081a2.769,2.769,0,0,1,1.159.578.949.949,0,0,1,.29.785,1.073,1.073,0,0,1-.293.644,1.675,1.675,0,0,1-.712.425,3.07,3.07,0,0,1-1,.144,2.441,2.441,0,0,1-.94-.18,1.471,1.471,0,0,1-.647-.491,1.1,1.1,0,0,1-.206-.713l.895,0a.626.626,0,0,0,.221.573,1.145,1.145,0,0,0,.717.207,1.459,1.459,0,0,0,.727-.153.645.645,0,0,0,.35-.453" transform="translate(-648.739 -292.458)" stroke="rgba(0,0,0,0)" stroke-width="1" fill="url(#linear-gradient)"></path><path id="Path_2662" data-name="Path 2662" d="M743.52,293.5h-1.594l-.786,3.759h-.892l.79-3.759h-1.584l.131-.612h4.066Z" transform="translate(-671.746 -292.822)" stroke="rgba(0,0,0,0)" stroke-width="1" fill="url(#linear-gradient)"></path><path id="Path_2663" data-name="Path 2663" d="M765.936,295.3h-2.1l-.282,1.345h2.457l-.127.606h-3.352l.913-4.371h3.33l-.13.612h-2.432l-.254,1.207h2.105Z" transform="translate(-690.838 -292.822)" stroke="rgba(0,0,0,0)" stroke-width="1" fill="url(#linear-gradient)"></path><path id="Path_2664" data-name="Path 2664" d="M788.372,292.883l.772,3.345,2.171-3.345h1.174l-.913,4.371h-.891l.308-1.48.467-1.822-2.174,3.3h-.645l-.808-3.4-.33,2-.293,1.4h-.892l.917-4.371Z" transform="translate(-710.521 -292.822)" stroke="rgba(0,0,0,0)" stroke-width="1" fill="url(#linear-gradient)"></path><path id="Path_2665" data-name="Path 2665" d="M834.664,296.648h2.326l-.13.606h-3.218l.917-4.371h.895Z" transform="translate(-749.678 -292.822)" stroke="rgba(0,0,0,0)" stroke-width="1" fill="url(#linear-gradient)"></path><path id="Path_2666" data-name="Path 2666" d="M856.613,318.475a.37.37,0,0,1,.14-.3.567.567,0,0,1,.357-.121.533.533,0,0,1,.357.107.352.352,0,0,1,.143.29.362.362,0,0,1-.137.29.565.565,0,0,1-.359.122.539.539,0,0,1-.357-.1.343.343,0,0,1-.143-.282" transform="translate(-768.684 -314.395)" stroke="rgba(0,0,0,0)" stroke-width="1" fill="url(#linear-gradient)"></path><path id="Path_2667" data-name="Path 2667" d="M869.308,296.648h2.326l-.131.606h-3.218l.917-4.371h.895Z" transform="translate(-778.343 -292.822)" stroke="rgba(0,0,0,0)" stroke-width="1" fill="url(#linear-gradient)"></path><path id="Path_2668" data-name="Path 2668" d="M891.256,318.475a.37.37,0,0,1,.14-.3.567.567,0,0,1,.357-.121.533.533,0,0,1,.357.107.352.352,0,0,1,.143.29.362.362,0,0,1-.137.29.565.565,0,0,1-.359.122.539.539,0,0,1-.357-.1.343.343,0,0,1-.143-.282" transform="translate(-797.348 -314.395)" stroke="rgba(0,0,0,0)" stroke-width="1" fill="url(#linear-gradient)"></path><path id="Path_2669" data-name="Path 2669" d="M908.28,295.465a1.656,1.656,0,0,1-.743,1.091,2.544,2.544,0,0,1-1.482.395,2.035,2.035,0,0,1-.882-.2,1.4,1.4,0,0,1-.592-.551,1.775,1.775,0,0,1-.239-.818,3.694,3.694,0,0,1,.1-.932,2.65,2.65,0,0,1,.473-1.058,2.242,2.242,0,0,1,.859-.706,2.56,2.56,0,0,1,1.132-.228,1.881,1.881,0,0,1,1.245.41,1.462,1.462,0,0,1,.487,1.1h-.888a.956.956,0,0,0-.237-.677.941.941,0,0,0-.651-.218,1.353,1.353,0,0,0-.989.351,1.894,1.894,0,0,0-.536,1.065l-.072.4-.033.306a1.508,1.508,0,0,0,.052.58.744.744,0,0,0,.288.414.955.955,0,0,0,.526.151,1.18,1.18,0,0,0,1.3-.868Z" transform="translate(-808.173 -292.46)" stroke="rgba(0,0,0,0)" stroke-width="1" fill="url(#linear-gradient)"></path></g></g></g></svg> 