<?xml version="1.0" encoding="UTF-8"?>
<svg xmlns="http://www.w3.org/2000/svg" width="179.971" height="36.878" viewBox="0 0 179.971 36.878">
  <g id="Group_681" data-name="Group 681" transform="translate(0 0.001)">
    <g id="Group_3" data-name="Group 3" transform="translate(28.808 0.02)">
      <rect id="Rectangle_2" data-name="Rectangle 2" width="5.423" height="35.962" fill="#fff"></rect>
      <path id="Path_12" data-name="Path 12" d="M417.073,35.93V22a18.135,18.135,0,0,0-.563-4.769,4.7,4.7,0,0,0-2.2-2.988,7.028,7.028,0,0,0-3.522-.946,7.693,7.693,0,0,0-1.741.191,8.156,8.156,0,0,0-2.254,1.036,4.955,4.955,0,0,0-2.043,3.059,17.762,17.762,0,0,0-.634,4.89V35.93H398.69V9.205h5.423v2.022a9.367,9.367,0,0,1,3.431-2.153,11.66,11.66,0,0,1,4.045-.714,13,13,0,0,1,5.574,1.409,8.046,8.046,0,0,1,4.136,4.468,20.356,20.356,0,0,1,1.2,7.386V35.93Z" transform="translate(-389.081 0.032)" fill="#fff"></path>
      <path id="Path_13" data-name="Path 13" d="M448.106,27.4h5.655a14.055,14.055,0,0,1-5.232,6.792,14.11,14.11,0,0,1-18.243-1.55,13.709,13.709,0,0,1-4.2-10.072A13.747,13.747,0,0,1,430.236,12.5,13.761,13.761,0,0,1,440.318,8.35a14.381,14.381,0,0,1,13.433,9.378H448.1a9.5,9.5,0,0,0-3.3-3.139,8.734,8.734,0,0,0-4.478-1.2,8.928,8.928,0,0,0-6.53,2.707,8.781,8.781,0,0,0-2.707,6.46,9.174,9.174,0,0,0,17.015,4.83" transform="translate(-388.91 0.032)" fill="#fff"></path>
      <path id="Path_14" data-name="Path 14" d="M457.9.44h5.423V6.377H457.9Zm0,8.814h5.423V35.979H457.9Z" transform="translate(-388.713 -0.017)" fill="#fff"></path>
      <path id="Path_15" data-name="Path 15" d="M481.648,31.785a8.84,8.84,0,0,0,4.478-1.157,9.058,9.058,0,0,0,3.3-3.23h5.655a14.166,14.166,0,0,1-5.232,6.762,14.053,14.053,0,0,1-18.243-1.519,13.71,13.71,0,0,1-4.2-10.072A13.747,13.747,0,0,1,471.555,12.5a14.345,14.345,0,0,1,20.164-.01,13.585,13.585,0,0,1,4.2,10.052l-.05,1.318H472.531a9,9,0,0,0,3.109,5.584,8.774,8.774,0,0,0,5.987,2.334M473.075,19.2h17.156a9.859,9.859,0,0,0-3.441-4.136,8.855,8.855,0,0,0-10.253-.05,9.734,9.734,0,0,0-3.461,4.186" transform="translate(-388.654 0.032)" fill="#fff"></path>
      <path id="Path_16" data-name="Path 16" d="M539.616,35.931h-5.423V20.647A15.456,15.456,0,0,0,533.7,16.5a4,4,0,0,0-1.65-2.485,6.468,6.468,0,0,0-1.862-.855,9.112,9.112,0,0,0-1.7-.141,6.275,6.275,0,0,0-3.159.755,5.287,5.287,0,0,0-2.355,3.119,16.439,16.439,0,0,0-.564,4.447v14.58h-5.424V20.345a13.771,13.771,0,0,0-.493-4.045,4.183,4.183,0,0,0-1.922-2.435,6.384,6.384,0,0,0-3.31-.855,7.277,7.277,0,0,0-1.811.161,8.552,8.552,0,0,0-1.851.946,4.561,4.561,0,0,0-1.831,2.838,17.2,17.2,0,0,0-.563,4.518V35.911H499.78V9.206H505.2v2.022a9.036,9.036,0,0,1,3.19-2.194,9.778,9.778,0,0,1,3.8-.775,9.28,9.28,0,0,1,2.888.473A11.135,11.135,0,0,1,517.741,10a10.6,10.6,0,0,1,2.445,2.355,9.33,9.33,0,0,1,3.793-3.089,11.569,11.569,0,0,1,4.739-1.016,15.141,15.141,0,0,1,5.112,1.157,7.542,7.542,0,0,1,4.427,4.347,20.942,20.942,0,0,1,1.338,8.06v14.1Z" transform="translate(-388.453 0.031)" fill="#fff"></path>
    </g>
    <g id="Group_4" data-name="Group 4" transform="translate(0 -0.001)">
      <path id="Path_17" data-name="Path 17" d="M371.3,12.135a13.047,13.047,0,0,1,9.348,3.934,10.653,10.653,0,0,0,1.419-5.3,10.766,10.766,0,0,0-21.533,0,10.625,10.625,0,0,0,1.419,5.3,13.064,13.064,0,0,1,9.348-3.934" transform="translate(-360.51 0)" fill="#fff"></path>
      <path id="Path_18" data-name="Path 18" d="M379.236,17.932h0a10.732,10.732,0,0,0-15.9,0h0a10.766,10.766,0,1,0,15.878,0" transform="translate(-360.51 0.09)" fill="#e6753b"></path>
    </g>
  </g>
</svg>
