<?xml version="1.0" encoding="UTF-8"?> <svg xmlns="http://www.w3.org/2000/svg" width="160.513" height="52.289" viewBox="0 0 160.513 52.289"><g id="Group_3909" data-name="Group 3909" transform="translate(0)"><rect id="Rectangle_870" data-name="Rectangle 870" width="160.513" height="52.289" rx="10" transform="translate(-0.001)" fill="#549447"></rect><g id="Shodei_horrizontal_black" data-name="Shodei horrizontal black" transform="translate(11.839 3.777)"><path id="Path_43" data-name="Path 43" d="M9.9-75.519a2.088,2.088,0,0,0,.381,1.176,4.67,4.67,0,0,0,.965.989,12.173,12.173,0,0,0,1.362.911q.763.444,1.565.934t1.565,1.067a8.177,8.177,0,0,1,1.37,1.308,6.258,6.258,0,0,1,.981,1.651,5.924,5.924,0,0,1,.4,2.087v.125a7.162,7.162,0,0,1-.311,2.227,5.619,5.619,0,0,1-.825,1.635,4.662,4.662,0,0,1-1.2,1.129,6.747,6.747,0,0,1-1.44.709,7.984,7.984,0,0,1-1.526.374,12.445,12.445,0,0,1-1.456.125h-.156a9.087,9.087,0,0,1-2.32-.265,6.319,6.319,0,0,1-1.713-.708,4.8,4.8,0,0,1-1.191-1.02A5.389,5.389,0,0,1,5.6-62.26a5.719,5.719,0,0,1-.4-1.222,5.674,5.674,0,0,1-.125-1.137,2.247,2.247,0,0,1,.187-.95,1.886,1.886,0,0,1,.49-.662,2,2,0,0,1,.7-.382,2.766,2.766,0,0,1,.833-.125,2.975,2.975,0,0,1,.833.125,2.474,2.474,0,0,1,.779.382,2.064,2.064,0,0,1,.576.654,1.962,1.962,0,0,1,.241.926,2.123,2.123,0,0,0,.529,1.6,2.137,2.137,0,0,0,1.433.428,4.041,4.041,0,0,0,.864-.117,1.55,1.55,0,0,0,.677-.358,1.763,1.763,0,0,0,.444-.685,3.065,3.065,0,0,0,.163-1.082,2.946,2.946,0,0,0-.366-1.464,5.114,5.114,0,0,0-.958-1.215,10,10,0,0,0-1.355-1.067q-.763-.506-1.557-1.012T8.037-70.684a9.547,9.547,0,0,1-1.362-1.207A5.5,5.5,0,0,1,5.7-73.339a4.436,4.436,0,0,1-.381-1.806v-.249a7.944,7.944,0,0,1,.444-2.772,4.028,4.028,0,0,1,1.261-1.76,5.057,5.057,0,0,1,2.048-.926,12.808,12.808,0,0,1,2.787-.273h.4a8.224,8.224,0,0,1,2.429.311,5.667,5.667,0,0,1,1.658.794,3.975,3.975,0,0,1,1.043,1.09,5.217,5.217,0,0,1,.568,1.2,5.279,5.279,0,0,1,.234,1.106q.047.514.047.825a1.973,1.973,0,0,1-.179.849,1.938,1.938,0,0,1-.483.646,2.214,2.214,0,0,1-.716.413,2.635,2.635,0,0,1-.9.148,2.018,2.018,0,0,1-.747-.148,2.642,2.642,0,0,1-.67-.381,2.055,2.055,0,0,1-.483-.537,1.162,1.162,0,0,1-.187-.615,2.633,2.633,0,0,0-.459-1.775,1.742,1.742,0,0,0-1.347-.5,6.993,6.993,0,0,0-.817.047,1.523,1.523,0,0,0-.7.257,1.408,1.408,0,0,0-.483.646A3.348,3.348,0,0,0,9.9-75.519Zm11.865-1.9q0-.67.062-1.308a3.408,3.408,0,0,1,.3-1.145,2,2,0,0,1,.708-.818A2.31,2.31,0,0,1,24.13-81a2.318,2.318,0,0,1,1.285.311,1.981,1.981,0,0,1,.716.818,3.408,3.408,0,0,1,.3,1.145q.062.638.062,1.308v4.889h4.267v-4.889q0-.67.062-1.308a3.408,3.408,0,0,1,.3-1.145,2,2,0,0,1,.708-.818A2.31,2.31,0,0,1,33.13-81a2.318,2.318,0,0,1,1.285.311,1.981,1.981,0,0,1,.716.818,3.408,3.408,0,0,1,.3,1.145q.062.638.062,1.308v14.637q0,.685-.062,1.324a3.408,3.408,0,0,1-.3,1.144,1.929,1.929,0,0,1-.716.81,2.364,2.364,0,0,1-1.285.3,2.357,2.357,0,0,1-1.292-.3,1.947,1.947,0,0,1-.708-.81,3.408,3.408,0,0,1-.3-1.144q-.062-.638-.062-1.324v-5.17H26.5v5.17q0,.685-.062,1.324a3.408,3.408,0,0,1-.3,1.144,1.929,1.929,0,0,1-.716.81,2.364,2.364,0,0,1-1.285.3,2.357,2.357,0,0,1-1.292-.3,1.947,1.947,0,0,1-.708-.81,3.408,3.408,0,0,1-.3-1.144q-.062-.638-.062-1.324Zm17.5,2.585A6.641,6.641,0,0,1,39.7-77.38a5.541,5.541,0,0,1,1.113-1.752,5.288,5.288,0,0,1,1.495-1.1,8.712,8.712,0,0,1,1.588-.6,7.862,7.862,0,0,1,1.394-.249q.623-.047.919-.047h.529q.3,0,.919.047a7.706,7.706,0,0,1,1.386.249,8.793,8.793,0,0,1,1.581.6,5.081,5.081,0,0,1,1.479,1.1,5.59,5.59,0,0,1,1.09,1.752,6.749,6.749,0,0,1,.428,2.546v9.312a7.079,7.079,0,0,1-.428,2.616,5.734,5.734,0,0,1-1.09,1.791,5.2,5.2,0,0,1-1.479,1.129,8.175,8.175,0,0,1-1.581.615,7.706,7.706,0,0,1-1.386.249q-.623.047-.919.047H46.21q-.3,0-.919-.047a7.862,7.862,0,0,1-1.394-.249,8.108,8.108,0,0,1-1.588-.615,5.409,5.409,0,0,1-1.495-1.129A5.681,5.681,0,0,1,39.7-62.906a6.965,6.965,0,0,1-.436-2.616Zm5.17,9.9a2.391,2.391,0,0,0,.265,1.012,2.1,2.1,0,0,0,.615.7,1.921,1.921,0,0,0,1.176.311,1.856,1.856,0,0,0,1.152-.311,2.13,2.13,0,0,0,.607-.7,2.741,2.741,0,0,0,.265-1.012V-75.083A2.853,2.853,0,0,0,48.25-76.1a2.274,2.274,0,0,0-.607-.693,1.823,1.823,0,0,0-1.152-.319,1.886,1.886,0,0,0-1.176.319,2.237,2.237,0,0,0-.615.693,2.476,2.476,0,0,0-.265,1.012ZM64.179-81a9.35,9.35,0,0,1,2.639.358,6.336,6.336,0,0,1,2.133,1.067,5.013,5.013,0,0,1,1.433,1.767,5.539,5.539,0,0,1,.522,2.476v9.654a7.818,7.818,0,0,1-.265,2.141,6.15,6.15,0,0,1-.693,1.6,5.2,5.2,0,0,1-.973,1.152,5.842,5.842,0,0,1-1.106.771,7.2,7.2,0,0,1-3.036.81h-5.17a2.579,2.579,0,0,1-1.37-.3,1.765,1.765,0,0,1-.7-.81,3.4,3.4,0,0,1-.257-1.144Q57.3-62.1,57.3-62.782V-77.45q0-.67.039-1.308a3.323,3.323,0,0,1,.257-1.137,1.773,1.773,0,0,1,.7-.8,2.579,2.579,0,0,1,1.37-.3ZM62.03-77.357v14.45h2.024a2.808,2.808,0,0,0,1.2-.311,2.158,2.158,0,0,0,.436-.3,2.152,2.152,0,0,0,.389-.444,2.163,2.163,0,0,0,.272-.615,3.043,3.043,0,0,0,.1-.825v-9.187a3.7,3.7,0,0,0-.1-.911,2.719,2.719,0,0,0-.272-.693,2.128,2.128,0,0,0-.389-.5,2.387,2.387,0,0,0-.436-.327,2.829,2.829,0,0,0-1.2-.343ZM82.865-81q.623,0,1.261.047a3.607,3.607,0,0,1,1.152.265,1.991,1.991,0,0,1,.841.662,2.052,2.052,0,0,1,.327,1.238,2.052,2.052,0,0,1-.327,1.238,1.991,1.991,0,0,1-.841.662,3.607,3.607,0,0,1-1.152.265q-.638.047-1.261.047H79.159v4.235h1.962q.623,0,1.254.039a3.356,3.356,0,0,1,1.121.249,1.9,1.9,0,0,1,.8.638,1.994,1.994,0,0,1,.311,1.191,1.987,1.987,0,0,1-.311,1.2,1.92,1.92,0,0,1-.8.631,3.356,3.356,0,0,1-1.121.249q-.631.039-1.254.039H79.159v4.485h3.706q.623,0,1.261.047a3.751,3.751,0,0,1,1.152.257,1.934,1.934,0,0,1,.841.654,2.023,2.023,0,0,1,.327,1.222,2.082,2.082,0,0,1-.335,1.261,2.022,2.022,0,0,1-.849.67,3.607,3.607,0,0,1-1.152.265q-.638.047-1.246.047h-6.1a2.451,2.451,0,0,1-1.347-.311,1.824,1.824,0,0,1-.693-.818,3.4,3.4,0,0,1-.257-1.144q-.039-.638-.039-1.308V-77.419q0-.67.039-1.308a3.4,3.4,0,0,1,.257-1.145,1.824,1.824,0,0,1,.693-.818A2.451,2.451,0,0,1,76.761-81Zm7.35,3.581a11.983,11.983,0,0,1,.07-1.308,3.3,3.3,0,0,1,.327-1.145,2.009,2.009,0,0,1,.771-.818A2.732,2.732,0,0,1,92.8-81a2.732,2.732,0,0,1,1.417.311,2.009,2.009,0,0,1,.771.818,3.3,3.3,0,0,1,.327,1.145,11.983,11.983,0,0,1,.07,1.308v14.637q0,.685-.062,1.324A3.189,3.189,0,0,1,95-60.314a1.946,1.946,0,0,1-.779.81,2.835,2.835,0,0,1-1.425.3,2.79,2.79,0,0,1-1.417-.3,1.959,1.959,0,0,1-.771-.81,3.3,3.3,0,0,1-.327-1.144,12.131,12.131,0,0,1-.07-1.324Z" transform="translate(41.705 86.921)" fill="#fff"></path><g id="Group_23" data-name="Group 23" transform="translate(0 0)"><path id="Subtraction_4" data-name="Subtraction 4" d="M17.087,38.3H13.98a2.493,2.493,0,0,0,.623-1.52c-.007-.085-.737-8.494-1.036-10.2a2.078,2.078,0,0,0-.89-1.512,1.405,1.405,0,0,0-.664-.216l-1.239-.013-.663-4.661-.809.142.642,4.511c-1.014-.008-1.919-.012-2.692-.012H6.675l.994-4.767-.8-.206L5.833,24.827c-.5.005-.876.014-1.114.026a1.517,1.517,0,0,0-1.311.8,2.075,2.075,0,0,0-.243.741c-.011.078-1.1,7.851-1.1,10.11a3.123,3.123,0,0,0,.079.722A4.834,4.834,0,0,1,.784,35.666,7.092,7.092,0,0,1,0,32.2c0-1.429.156-3.733.465-6.851.247-2.492.591-5.507,1.023-8.96.735-5.873,1.481-11.063,1.488-11.11A9.262,9.262,0,0,1,3.9,2.738,5.858,5.858,0,0,1,5.367.952a4.127,4.127,0,0,1,2.395-.9C8.455.018,9.577,0,11.1,0c5.74,0,15.731.262,16.154.273h.008a3.853,3.853,0,0,1,1.819.592A4.59,4.59,0,0,1,30.5,2.272,7.218,7.218,0,0,1,31.516,5.01c.428,2.448,1.177,9.92,1.73,15.757.6,6.349,1.1,12.151,1.109,12.2a7.7,7.7,0,0,1-.664,2.665A4.754,4.754,0,0,1,32.26,37.47a3.965,3.965,0,0,1-.819.473c.185-1.02.536-3.179.8-6.177a6.284,6.284,0,0,0-.9-4.491,5.692,5.692,0,0,0-2.674-1.829,19.083,19.083,0,0,0-4.91-.957,15.35,15.35,0,0,1-4.51-1.119A18.389,18.389,0,0,1,15.683,21.4a19.89,19.89,0,0,1-2.452-2.035,12.232,12.232,0,0,1-1.195-1.319.566.566,0,0,1-.093-.149,5.012,5.012,0,0,1-.6,1.568c-.2.312-.354.382-.391.382a16.735,16.735,0,0,0,4.546,7.027,17.521,17.521,0,0,0,3.088,2.36L17.087,38.3Zm8.15-24.845a4.889,4.889,0,0,0-4.6,5.122,4.889,4.889,0,0,0,4.6,5.122,4.889,4.889,0,0,0,4.6-5.122A4.889,4.889,0,0,0,25.236,13.458Zm-16.1.832a1.226,1.226,0,0,0-1.047.426,3.135,3.135,0,0,0-.441,1.056c-.048.164-.1.333-.157.508a3.7,3.7,0,0,0,.093,2.771,1.45,1.45,0,0,0,1.324.672h.034a2.682,2.682,0,0,0,2.612-2.852,2.411,2.411,0,0,0-.612-1.644A2.455,2.455,0,0,0,9.14,14.29ZM21.748,1.705a1.215,1.215,0,0,0-1.143,1.274,1.15,1.15,0,1,0,2.286,0A1.215,1.215,0,0,0,21.748,1.705Zm-9.142,0a1.215,1.215,0,0,0-1.143,1.274,1.215,1.215,0,0,0,1.143,1.274,1.215,1.215,0,0,0,1.143-1.274A1.215,1.215,0,0,0,12.607,1.705ZM27.024,38.3H25.559l1.415-5.851h.758L27.025,38.3Z" transform="translate(0 5.712)" fill="#fff"></path><path id="Subtraction_2" data-name="Subtraction 2" d="M.93,7.479h0a1.132,1.132,0,0,0-.7-.237A1.152,1.152,0,0,0,0,7.265,19.145,19.145,0,0,1,.946,3.848a8.679,8.679,0,0,1,1.491-2.6A3.292,3.292,0,0,1,4.929,0h.065A3.332,3.332,0,0,1,7.5,1.317a8.507,8.507,0,0,1,1.407,2.6A18.35,18.35,0,0,1,9.746,7.3a1.146,1.146,0,0,0-.949.1,17.567,17.567,0,0,0-.789-3.173,7.548,7.548,0,0,0-1.237-2.3,2.392,2.392,0,0,0-1.8-.974H4.929a2.356,2.356,0,0,0-1.781.926A7.757,7.757,0,0,0,1.833,4.2a18.219,18.219,0,0,0-.9,3.283Z" transform="translate(12.374)" fill="#fff"></path></g><path id="Path_9826" data-name="Path 9826" d="M4.009-5.574a1.284,1.284,0,0,1,.794.493,1.45,1.45,0,0,1,.326.928,1.437,1.437,0,0,1-.23.8,1.557,1.557,0,0,1-.664.56,2.349,2.349,0,0,1-1.011.2H.9V-8.4H3.115a2.377,2.377,0,0,1,1.02.2,1.5,1.5,0,0,1,.643.539,1.37,1.37,0,0,1,.217.756,1.3,1.3,0,0,1-.267.836A1.557,1.557,0,0,1,4.009-5.574ZM1.853-5.958H3.031a1.132,1.132,0,0,0,.731-.213.744.744,0,0,0,.263-.614A.759.759,0,0,0,3.762-7.4a1.1,1.1,0,0,0-.731-.221H1.853ZM3.14-3.367A1.139,1.139,0,0,0,3.9-3.6a.809.809,0,0,0,.276-.652.846.846,0,0,0-.292-.677,1.153,1.153,0,0,0-.777-.251H1.853v1.813ZM15.182-7.195v4.6h-.953v-.543a1.542,1.542,0,0,1-.589.447,1.868,1.868,0,0,1-.773.163,2.065,2.065,0,0,1-.974-.226,1.63,1.63,0,0,1-.677-.669,2.169,2.169,0,0,1-.247-1.07V-7.195h.944v2.566a1.336,1.336,0,0,0,.309.949,1.1,1.1,0,0,0,.844.33,1.114,1.114,0,0,0,.848-.33,1.325,1.325,0,0,0,.313-.949V-7.195Zm10.246,0L22.6-.426h-.986l.936-2.24L20.74-7.195H21.8l1.3,3.51,1.345-3.51ZM42.5-2.59l-.719-.719a2.813,2.813,0,0,1-.911.623,2.851,2.851,0,0,1-1.1.2A2.612,2.612,0,0,1,38.674-2.7a1.67,1.67,0,0,1-.735-.623,1.708,1.708,0,0,1-.259-.94,1.782,1.782,0,0,1,.343-1.074,2.282,2.282,0,0,1,1.02-.748,2.074,2.074,0,0,1-.343-.547,1.528,1.528,0,0,1-.1-.564,1.226,1.226,0,0,1,.2-.685,1.345,1.345,0,0,1,.564-.476,1.958,1.958,0,0,1,.852-.175,1.74,1.74,0,0,1,.84.188,1.23,1.23,0,0,1,.518.514,1.3,1.3,0,0,1,.138.727h-.953a.653.653,0,0,0-.15-.481.563.563,0,0,0-.435-.171.622.622,0,0,0-.447.163.527.527,0,0,0-.171.4.877.877,0,0,0,.13.447,3.588,3.588,0,0,0,.455.572l1.538,1.529.593-.978H43.3l-.752,1.287-.209.343,1.412,1.4Zm-2.733-.7a1.849,1.849,0,0,0,1.387-.643L39.618-5.482q-.986.393-.986,1.187a.926.926,0,0,0,.318.715A1.171,1.171,0,0,0,39.769-3.292Zm18.385.76a2.6,2.6,0,0,1-1.053-.2,1.728,1.728,0,0,1-.735-.581,1.475,1.475,0,0,1-.267-.877h1.02a.92.92,0,0,0,.3.618,1.052,1.052,0,0,0,.74.242,1.139,1.139,0,0,0,.769-.238.774.774,0,0,0,.276-.614.671.671,0,0,0-.171-.476,1.146,1.146,0,0,0-.426-.284,6.427,6.427,0,0,0-.706-.217,6.617,6.617,0,0,1-.923-.305,1.526,1.526,0,0,1-.606-.481,1.389,1.389,0,0,1-.251-.869,1.545,1.545,0,0,1,.251-.877,1.6,1.6,0,0,1,.7-.577,2.551,2.551,0,0,1,1.045-.2,2.177,2.177,0,0,1,1.383.422,1.557,1.557,0,0,1,.6,1.157H59.04a.763.763,0,0,0-.3-.543,1.112,1.112,0,0,0-.727-.226,1.032,1.032,0,0,0-.669.209.728.728,0,0,0-.259.6.611.611,0,0,0,.163.439,1.151,1.151,0,0,0,.414.272,6.421,6.421,0,0,0,.685.217,7.154,7.154,0,0,1,.94.318,1.565,1.565,0,0,1,.618.489,1.405,1.405,0,0,1,.255.882,1.585,1.585,0,0,1-.238.836,1.718,1.718,0,0,1-.694.631A2.287,2.287,0,0,1,58.154-2.532Zm7.663-2.382a2.548,2.548,0,0,1,.288-1.228,2.113,2.113,0,0,1,.786-.832,2.1,2.1,0,0,1,1.1-.3,2.01,2.01,0,0,1,.949.213,1.925,1.925,0,0,1,.648.531v-.669h.961v4.6h-.961v-.685a1.892,1.892,0,0,1-.66.543,2.035,2.035,0,0,1-.953.217,2.025,2.025,0,0,1-1.086-.305,2.163,2.163,0,0,1-.781-.852A2.622,2.622,0,0,1,65.817-4.913Zm3.769.017a1.667,1.667,0,0,0-.2-.827,1.379,1.379,0,0,0-.514-.535,1.345,1.345,0,0,0-.685-.184,1.369,1.369,0,0,0-.685.18,1.355,1.355,0,0,0-.514.526,1.644,1.644,0,0,0-.2.823,1.715,1.715,0,0,0,.2.836,1.386,1.386,0,0,0,.518.547,1.329,1.329,0,0,0,.681.188,1.345,1.345,0,0,0,.685-.184,1.372,1.372,0,0,0,.514-.539A1.691,1.691,0,0,0,69.586-4.9Zm8.842,1.454,1.3-3.752h1.011l-1.755,4.6H77.851L76.1-7.195h1.02Zm12.1-1.563a2.979,2.979,0,0,1-.033.468H86.977a1.278,1.278,0,0,0,.41.886,1.293,1.293,0,0,0,.9.334,1.115,1.115,0,0,0,1.086-.643H90.4a2.074,2.074,0,0,1-.756,1.04,2.219,2.219,0,0,1-1.358.405,2.352,2.352,0,0,1-1.183-.3,2.111,2.111,0,0,1-.819-.836,2.549,2.549,0,0,1-.3-1.249,2.609,2.609,0,0,1,.288-1.249,2.028,2.028,0,0,1,.811-.832,2.412,2.412,0,0,1,1.2-.292,2.345,2.345,0,0,1,1.162.284,2.008,2.008,0,0,1,.794.8A2.4,2.4,0,0,1,90.529-5.005Zm-.994-.3a1.084,1.084,0,0,0-.376-.844,1.345,1.345,0,0,0-.911-.318,1.224,1.224,0,0,0-.844.313,1.31,1.31,0,0,0-.418.848Z" transform="translate(46.52 45.178)" fill="#fff"></path></g></g></svg> 